<?xml version="1.0" encoding="UTF-8"?>
<svg id="Capa_1" data-name="Capa 1" xmlns="http://www.w3.org/2000/svg" viewBox="0 0 615.95 105.63">
  <defs>
    <style>
      .cls-1 {
        fill: #729343;
        stroke-width: 0px;
      }
    </style>
  </defs>
  <g>
    <path class="cls-1" d="m236.13,105.63h-17.26c-.14-.69-.22-1.31-.29-1.57-4.26-16.1-14.78-27.27-28.25-35.85-8.13-5.18-14.57-12.09-21.33-18.76-2.4-2.37-5.08-4.75-8.24-5.96-8.73-3.34-13.43-6.49-19.5-10.45-.3-.19-.89-.51-1.4-.83-.42-.26-.43-.87-.03-1.15,1.48-1.03,3.89-.89,5.28-.7,2.28.32,3.53.93,5.81,1.27,2.76.4,3.02.36,4.23-1.77,2.76-4.85,2.88-4.63,4.8-8.41.49-.95,2.24-3.8,2.45-4.14.63-.97.56-1.07,1.27-1.07.42,0,1.47-.06,2.52-.06h5.88c-.41,1.01-1.06,2.33-1.37,3-2.2,4.71-4.68,9.39-6.94,14.08-.66,1.38-.49,1.9.84,2.58.56.28,1.19,1.39,1.41,2.04,1.17,3.31,3.5,5.07,6.61,6.25,7.67,2.89,15.38,5.71,22.96,8.78,4.27,1.73,8.35,3.96,12.53,5.91,1.22.56,2.5,1.09,3.81,1.32,3.95.73,5.5-.21,6.27-4.31.06-.33.49-.43.69-.17,4.56,5.83,8.89,11.31,13.1,16.89.59.79.65,2.11.65,3.2.03,5.52-.28,11.95-.08,17.47.08,2.17,1.78,4.98,2.37,7.12.57,2.12.89,2.68,1.2,5.3Z"/>
    <path class="cls-1" d="m205.27,38.31c1.64,1.91.97,3.75.2,5.6-.73,1.72-2.2,2.51-4.04,2.41-1.49-.09-3.07-.1-4.46-.56-4.18-1.4-8.28-3.03-12.96-4.76,10.59.04,11.05-1.06,13.45-11.94.47.38.93.64,1.23,1.02,2.2,2.74,4.3,5.57,6.58,8.24Z"/>
    <path class="cls-1" d="m198.88,98.55c1.32,2.6,2.48,6.1,2.27,7.08h-17.11s-.03-.05-.04-.08c-1.28-6.91-6.51-13.31-11.54-17.33-10.9-8.74-22.15-17.03-33.27-25.5-7.75-5.9-15.61-11.67-23.22-17.74-5.46-4.37-9.15-10.23-12.03-16.57-.09-.19-.16-.36-.22-.55-.03-.07-.05-.14-.08-.21-.09-.25-.16-.51-.21-.76-.05-.2-.09-.42-.12-.62,0-.12-.02-.22-.03-.34-.18-2.94,2.05-5.04,5.56-5.75.32-.02.65-.11,1.15-.23.18-.03.38-.08.6-.13,0,0,0,0,0,0h1.25c1.43.99,3.2,1.5,5.59,1.19-2.18-3.74-4.12-7.08-6.07-10.42.13-.11.25-.22.38-.33,2.5,2.85,5.13,5.6,7.47,8.58,1.7,2.17,2.95,3.55,5.27,4.22l-.21.92c-.55-.14-1.1-.26-1.67-.39-2.56-.56-3.69.4-3.49,3.65.32,5.26,2.26,9.2,6.6,12.29,11.39,8.09,22.81,16.15,34.12,24.35,9.16,6.65,18.33,13.33,27.25,20.32,4.92,3.86,8.93,8.73,11.81,14.37Z"/>
    <path class="cls-1" d="m188.6,17.19c.67.71.59,2.04.36,3.02-.98,4.2-2.12,8.36-3.43,12.45-1.66,5.21-7.99,8.3-13.45,4.22,3.3-2.87,5.25-10.94,7.56-16.94.24-.64.99-3.39,1.8-3.52,1.71-.25,5.8-.66,7.16.77Z"/>
    <path class="cls-1" d="m164.55,100.77c1.01,1.6,2.14,3.82,2.09,4.86h-18.26c-.05-.93,0-2.04-.23-2.79-.76-2.29-1.91-4.73-3.6-6.36-6.98-6.67-14.2-13.1-21.39-19.54-8.74-7.83-17.79-15.34-26.27-23.45-2.99-2.85-5.64-6.06-7.92-9.5-3.59-5.42-6.26-11.4-8.36-17.55-2.32-6.79-4.72-13.96-3.76-21.24.32-2.43,1.26-4.36,3.85-4.85,3.81-.73,7.46-.19,11.28.64,7.38,1.62,11.36,6.84,15.05,12.64.94,1.48,1.81,3.04,2.93,4.39.56.68,1.18,1.29,1.87,1.77h-1.25s0,0,0,0c-.73-.53-1.07-.93-1.52-1.08-.21-.08-.42-.15-.63-.22-1.61-.9-4.1-1.44-6.13-2.14-1.95-.68-4.01-1.8-6.13-1.71-.07,0-.14,0-.2.02-.17,0-.32.03-.47.07-1.01.19-1.82.82-2.44,1.86-.05.07-.09.15-.13.22-.19.3-.34.61-.48.94-.45,1.05-.76,2.1-.95,3.16,0,.02,0,.04,0,.07-.58,2.68-.51,5.4.39,8.22,1.18,3.7,3.11,6.91,5.34,10.01.13.19.25.36.38.53.22.31.45.61.68.92,7.7,10.26,17.72,17.92,27.67,25.72,10.23,8.04,20.47,16.11,30.42,24.5,3.22,2.73,5.91,6.3,8.2,9.9Z"/>
    <path class="cls-1" d="m145.08,16.01h8.81c-8.33,10.31-9.63,10.62-17.16,10.49-4.24-.08-8.07-1.44-12.48-2.55l.21-.92c.54.15,1.13.25,1.79.33.46.05.98.09,2.56-.11-2.14-1.68-5.72-3.67-7.89-5.38,3.97-1.03,5.07-1.89,6.25-1.89.76,0,6.98-.11,8.62-.11-4.29,2.87-5.92,2.35-11.32,2.66,0,.17,4.51,1.61,6.87,1.92,5.32.7,8.84-.47,11.84-2.76,1.17-.91,1.89-1.69,1.89-1.69Z"/>
    <path class="cls-1" d="m132.52,105.63h-19.62c0-.63.03-1.21.11-1.5.98-3.42-.88-5.8-2.35-7.59-3.86-4.67-8.02-9.12-12.33-13.39-8.52-8.45-17.42-16.63-23.6-27.04-5.95-9.99-10.46-20.76-12.6-32.26-.88-4.72-.64-8.97-.26-13.82.37-4.77,5.57-7.57,9.51-9.31-4.27,4.27-3.61,16.01-1.53,21.65,6.56,17.69,11.28,27.87,23.64,41.67,7.15,7.97,16.48,14.66,24.24,22.03,4.22,3.99,7.95,7.45,11.94,12.75.86,1.14,1.98,4.79,2.85,6.82Z"/>
    <path class="cls-1" d="m110.57,19.8c-.15-.09-1.33-.79-1.78-1.08-.12-.08-.24-.16-.37-.22.21.08.42.15.63.22.45.16.79.56,1.52,1.08Z"/>
    <path class="cls-1" d="m109.98,19.93c-.5.13-.83.21-1.15.23.19-.04.59-.12,1.15-.23Z"/>
    <path class="cls-1" d="m103.63,27.64c.03.08.05.15.08.21-.03-.08-.06-.15-.08-.21Z"/>
    <path class="cls-1" d="m103.3,26.25c.03.2.07.42.12.62-.06-.21-.09-.42-.12-.62Z"/>
    <path class="cls-1" d="m96.15,102.08c.08,1.18.06,2.37.05,3.54h-18.28c3.3-6.99-1.82-12.43-4.97-16.93-6.77-9.71-13.84-19.23-18.04-30.49-3.27-8.74-5.88-17.66-5.02-27.15.42-4.53,1.22-9.04,2.13-13.5.54-2.67,1.93-5.03,4.46-6.65-3.64,15.14.12,29.06,6.09,42.77,5.21,11.98,14.44,21.68,22.86,31.34,2.51,2.88,5.01,5.82,7.28,8.91,1.81,2.45,3.22,5.08,3.44,8.16Z"/>
    <path class="cls-1" d="m97.21,39.21c-2.23-3.1-4.16-6.31-5.34-10.01-.9-2.81-.97-5.54-.39-8.22-1.21,6.47,1.96,12.89,5.73,18.23Z"/>
    <path class="cls-1" d="m95.49,14.72c-1.07.25-1.86.95-2.44,1.86.62-1.04,1.43-1.67,2.44-1.86Z"/>
    <path class="cls-1" d="m61.84,100.22c.19,1.67.13,3.91-.56,5.4h-18.29c5.35-7.86,2.7-12.25,1.31-17.12-1.51-5.31-2.96-10.64-4.69-15.88-1.74-5.29-1.92-10.69-1.67-16.16.44-10.23,2.32-20.18,6.09-29.73.27-.69.38-1.45.56-2.17-.2-.12-.4-.22-.6-.34-.58.75-1.39,1.41-1.73,2.26-.1.25-.2.51-.3.76l-1.18-.47c-.25-.27-.51-.54-.77-.81-4.68,4.11-9.38,8.23-14.3,12.53,4.96-10.21,14.16-15.11,23.2-20.53-.21.69-.38,1.39-.63,2.07-2.95,8.12-4.45,16.51-4.51,25.16-.06,10.98,3.13,21.16,7.83,30.92,2.62,5.4,5.6,10.63,8.1,16.09,1.14,2.48,1.84,5.28,2.15,8Z"/>
    <path class="cls-1" d="m40.77,26.78l1.18.47c-2.62,6.57-5.58,13.06-7.49,19.84-2.33,8.2-4.13,16.63-5.23,25.08-.63,4.81.57,9.86.95,14.81.36,4.83.52,9.61-2.13,13.99-.67,1.1-2.17,3.37-3.68,4.65H6.16c7.46-6.26,8.15-9.86,9.78-13.52.63-1.43.92-3.08,1.08-4.65.87-8.06,5.17-14.92,7.77-22.37,3.43-9.82,7.65-19.34,11.53-29,.19-.48.3-.99-.04-1.84-.56.65-1.26,1.22-1.67,1.95-1.3,2.35-2.57,4.7-3.85,7.06l-1.12-.6c.23-.38.3-.86.02-1.7-.6.56-1.28,1.06-1.79,1.69l-.93-.83c1.35-1.52,2.69-3.04,4.07-4.5,2.8-2.97,5.64-5.9,8.44-8.86.49-.52.88-1.11,1.31-1.67Z"/>
    <path class="cls-1" d="m29.65,42.65l1.12.6c-1.24,2.29-2.48,4.58-3.76,6.84-6.11,10.78-12.15,21.62-18.51,32.25-2.22,3.71-5.31,6.89-7.99,10.32-.16-.07-.32-.13-.48-.19,0-3.1-.09-6.2.07-9.29.03-.73.77-1.54,1.36-2.13,11.41-11.3,19.95-24.74,28.19-38.41Z"/>
    <path class="cls-1" d="m26.94,41.82l.93.83c-4.95,6.08-9.67,12.36-14.86,18.21-3.51,3.96-7.67,7.33-11.77,10.72,5.51-7.34,10.05-15.36,17.34-21.29,3.06-2.49,5.72-5.47,8.36-8.47Z"/>
  </g>
  <g>
    <path class="cls-1" d="m311.5,2.69c-1.79-1.3-4.14-1.96-6.99-1.96s-5.28.7-7.26,2.1-3.69,3.77-5.28,7.37l-33.37,95.44h23.51l5.61-17.69h32.57l5.75,17.69h23.51l-33.38-95.45c-1.35-3.73-2.88-6.18-4.68-7.49Zm3.43,65.94h-21.39l10.95-35.08,10.45,35.08Z"/>
    <path class="cls-1" d="m399.46.72h-40.94v104.9h22.48v-32.8h18.47c11.03,0,19.72-3.1,25.84-9.21,6.11-6.11,9.21-15.14,9.21-26.84s-3.1-20.73-9.21-26.84c-6.11-6.11-14.8-9.21-25.84-9.21Zm-18.47,20.32h17.46c9.14,0,13.58,5.15,13.58,15.73,0,5.68-1.16,9.74-3.46,12.08-2.29,2.33-5.69,3.51-10.12,3.51h-17.46v-31.32Z"/>
    <path class="cls-1" d="m446.69,77.34c0,10.4,2.49,17.81,7.41,22.02,4.93,4.22,13.12,6.27,25.05,6.27h37.49v-20.32h-36.05c-4.48,0-7.55-.68-9.13-2.01-1.52-1.28-2.29-3.77-2.29-7.39v-13h31.7l1.64-20.32h-33.33v-21.54h47.47V.72h-69.95v76.62Z"/>
    <polygon class="cls-1" points="580.61 51.87 613.63 .72 586.19 .72 567.48 32.59 549.06 .72 521.47 .72 554.49 51.88 519.29 105.63 547.03 105.63 567.48 71.13 588.21 105.63 615.95 105.63 580.61 51.87"/>
  </g>
</svg>