<?xml version="1.0" encoding="UTF-8"?>
<svg id="Capa_1" data-name="Capa 1" xmlns="http://www.w3.org/2000/svg" viewBox="0 0 988.2 92.18">
  <defs>
    <style>
      .cls-1 {
        stroke-width: 0px;
      }

      .cls-1, .cls-2 {
        fill: #729343;
      }

      .cls-2 {
        stroke: #729343;
        stroke-miterlimit: 10;
      }
    </style>
  </defs>
  <g>
    <path class="cls-1" d="m243.93,54.95v28.58h-3.97v-28.58h3.97Z"/>
    <path class="cls-1" d="m248.46,69.03c0-4.39-.04-5.69-.08-6.6h3.78c.06.4.16,2.3.14,3.2.87-1.84,2.79-3.61,6.15-3.61,4.01,0,6.71,2.33,6.71,7.86v13.66h-3.88v-13.02c0-2.94-.95-5.18-3.99-5.18-3.53,0-4.98,2.54-4.98,6.82v11.38h-3.85v-14.5Z"/>
    <path class="cls-1" d="m269.73,69.03c0-4.39-.04-5.69-.08-6.6h3.78c.06.4.16,2.3.14,3.2.87-1.84,2.79-3.61,6.15-3.61,4.01,0,6.71,2.33,6.71,7.86v13.66h-3.88v-13.02c0-2.94-.95-5.18-3.99-5.18-3.53,0-4.98,2.54-4.98,6.82v11.38h-3.85v-14.5Z"/>
    <path class="cls-1" d="m308.46,72.64c0,6.12-2.73,11.26-9.56,11.26s-9.31-5.37-9.31-11.16,3.03-10.73,9.57-10.73c6.13,0,9.29,4.62,9.29,10.63Zm-14.91.05c0,4.79,1.9,8.05,5.56,8.05s5.39-3.19,5.39-8.08c0-4.5-1.82-7.49-5.51-7.49s-5.44,3.07-5.44,7.52Z"/>
    <path class="cls-1" d="m313.18,62.42c2.7,8.61,4.51,14.38,5.14,17.42h.04c.47-2.62,3.75-12.25,5.34-17.42h3.82l-7.25,21.11h-4.2l-7-21.11h4.11Z"/>
    <path class="cls-1" d="m344.23,78.7c0,1.45.13,3.65.31,4.84h-3.47c-.14-.71-.29-1.88-.31-3.12-.82,2.04-2.92,3.5-6.29,3.5-5.17,0-6.8-3.43-6.8-6.41,0-3.3,2.16-6.75,9.67-6.75h3.09v-1.95c0-1.95-.56-3.87-3.93-3.87-2.95,0-3.92,1.38-4.25,3.56h-3.76c.3-3.49,2.33-6.47,8.11-6.47,4.52,0,7.62,1.76,7.62,6.65v10.03Zm-3.68-5.25h-3.19c-4.86,0-5.77,1.97-5.77,3.8,0,1.94,1.17,3.55,3.72,3.55,3.98,0,5.23-2.68,5.23-6.91v-.43Z"/>
    <path class="cls-1" d="m365.07,76.68c-.81,4.15-3.43,7.25-8.63,7.25-6.04,0-9.03-3.95-9.03-10.97,0-6.2,3.19-10.94,9.27-10.94s8.1,4.09,8.37,7.47h-3.88c-.37-2.3-1.61-4.36-4.57-4.36-3.66,0-5.24,3.23-5.24,7.75,0,5.32,1.86,7.98,5.18,7.98,2.82,0,3.98-1.76,4.67-4.16h3.86Z"/>
    <path class="cls-1" d="m367.99,53.35h3.85v4.6h-3.85v-4.6Zm0,9.08h3.85v21.11h-3.85v-21.11Z"/>
    <path class="cls-1" d="m393.87,72.64c0,6.12-2.73,11.26-9.56,11.26s-9.31-5.37-9.31-11.16,3.03-10.73,9.57-10.73c6.13,0,9.29,4.62,9.29,10.63Zm-14.91.05c0,4.79,1.9,8.05,5.56,8.05s5.39-3.19,5.39-8.08c0-4.5-1.82-7.49-5.51-7.49s-5.43,3.07-5.43,7.52Zm12.21-20.08l-5.6,6.23h-3.62l4.58-6.23h4.64Z"/>
    <path class="cls-1" d="m397.05,69.03c0-4.39-.04-5.69-.08-6.6h3.78c.06.4.16,2.3.14,3.2.87-1.84,2.79-3.61,6.16-3.61,4.01,0,6.71,2.33,6.71,7.86v13.66h-3.87v-13.02c0-2.94-.95-5.18-4-5.18-3.52,0-4.98,2.54-4.98,6.82v11.38h-3.85v-14.5Z"/>
    <path class="cls-1" d="m427.4,83.53v-17.99h-3.18v-3.12h3.18v-2.5c0-3.81,1.43-6.89,5.87-6.89.71,0,1.56.1,2.06.29v3.2c-.41-.11-1-.17-1.66-.17-1.79,0-2.44,1.2-2.44,3.46v2.61h3.85v3.12h-3.85v17.99h-3.83Z"/>
    <path class="cls-1" d="m437.06,53.35h3.85v4.6h-3.85v-4.6Zm0,9.08h3.85v21.11h-3.85v-21.11Z"/>
    <path class="cls-1" d="m445.48,69.03c0-4.39-.04-5.69-.08-6.6h3.78c.06.4.16,2.3.14,3.2.87-1.84,2.79-3.61,6.16-3.61,4.01,0,6.71,2.33,6.71,7.86v13.66h-3.87v-13.02c0-2.94-.95-5.18-4-5.18-3.52,0-4.97,2.54-4.97,6.82v11.38h-3.85v-14.5Z"/>
    <path class="cls-1" d="m481.58,78.7c0,1.45.13,3.65.31,4.84h-3.47c-.14-.71-.29-1.88-.31-3.12-.82,2.04-2.92,3.5-6.29,3.5-5.17,0-6.8-3.43-6.8-6.41,0-3.3,2.16-6.75,9.67-6.75h3.09v-1.95c0-1.95-.56-3.87-3.93-3.87-2.95,0-3.92,1.38-4.25,3.56h-3.76c.3-3.49,2.33-6.47,8.11-6.47,4.52,0,7.62,1.76,7.62,6.65v10.03Zm-3.68-5.25h-3.19c-4.85,0-5.77,1.97-5.77,3.8,0,1.94,1.17,3.55,3.72,3.55,3.98,0,5.24-2.68,5.24-6.91v-.43Z"/>
    <path class="cls-1" d="m486.15,69.03c0-4.39-.04-5.69-.08-6.6h3.78c.06.4.16,2.3.14,3.2.87-1.84,2.79-3.61,6.15-3.61,4.01,0,6.71,2.33,6.71,7.86v13.66h-3.87v-13.02c0-2.94-.95-5.18-4-5.18-3.52,0-4.97,2.54-4.97,6.82v11.38h-3.85v-14.5Z"/>
    <path class="cls-1" d="m523.7,76.68c-.81,4.15-3.43,7.25-8.63,7.25-6.04,0-9.03-3.95-9.03-10.97,0-6.2,3.19-10.94,9.27-10.94s8.1,4.09,8.37,7.47h-3.88c-.37-2.3-1.61-4.36-4.57-4.36-3.66,0-5.24,3.23-5.24,7.75,0,5.32,1.86,7.98,5.18,7.98,2.82,0,3.98-1.76,4.67-4.16h3.86Z"/>
    <path class="cls-1" d="m526.62,53.35h3.85v4.6h-3.85v-4.6Zm0,9.08h3.85v21.11h-3.85v-21.11Z"/>
    <path class="cls-1" d="m537.56,73.75c-.02,3.91,1.62,7.01,5.23,7.01,3.22,0,4.22-2.22,4.6-3.29h3.79c-.76,2.8-2.89,6.46-8.56,6.46-6.63,0-8.98-5.08-8.98-11,0-5.19,2.56-10.92,9.18-10.92s8.67,5.14,8.67,10.12c0,.15-.02,1.45-.04,1.62h-13.9Zm10.14-2.74c-.11-3.35-1.45-5.94-4.96-5.94-3.98,0-4.93,3.54-5.1,5.94h10.06Z"/>
    <path class="cls-1" d="m554.64,69.59c0-3.38-.02-6.04-.08-7.16h3.78c.08.98.1,2.33.1,4.17.93-2.45,3.17-4.5,6.74-4.55v3.98c-4.67.12-6.68,2.66-6.68,7.27v10.23h-3.85v-13.95Z"/>
    <path class="cls-1" d="m581.92,78.7c0,1.45.13,3.65.31,4.84h-3.47c-.14-.71-.29-1.88-.31-3.12-.82,2.04-2.92,3.5-6.29,3.5-5.17,0-6.8-3.43-6.8-6.41,0-3.3,2.16-6.75,9.67-6.75h3.09v-1.95c0-1.95-.56-3.87-3.93-3.87-2.95,0-3.92,1.38-4.25,3.56h-3.76c.3-3.49,2.33-6.47,8.11-6.47,4.52,0,7.62,1.76,7.62,6.65v10.03Zm-3.68-5.25h-3.19c-4.86,0-5.77,1.97-5.77,3.8,0,1.94,1.17,3.55,3.72,3.55,3.98,0,5.23-2.68,5.23-6.91v-.43Z"/>
    <path class="cls-1" d="m599.15,81.13v10.72h-3.83v-23.23c0-2.88.02-4.88-.06-6.2h3.78c.06.71.1,2.13.12,3.28.98-2.02,2.99-3.7,6.48-3.7,4.55,0,7.9,3.58,7.9,10.65s-3.8,11.22-8.77,11.22c-2.99,0-4.72-1.16-5.6-2.75Zm10.42-8.37c0-4.97-1.99-7.47-5.21-7.47-4.14,0-5.39,2.77-5.39,7.75,0,4.54.9,7.6,5.17,7.6,3.43,0,5.42-2.81,5.42-7.88Z"/>
    <path class="cls-1" d="m631.75,78.7c0,1.45.13,3.65.31,4.84h-3.47c-.14-.71-.29-1.88-.31-3.12-.82,2.04-2.92,3.5-6.29,3.5-5.17,0-6.8-3.43-6.8-6.41,0-3.3,2.16-6.75,9.68-6.75h3.09v-1.95c0-1.95-.56-3.87-3.93-3.87-2.95,0-3.92,1.38-4.25,3.56h-3.76c.3-3.49,2.33-6.47,8.11-6.47,4.52,0,7.62,1.76,7.62,6.65v10.03Zm-3.68-5.25h-3.19c-4.85,0-5.77,1.97-5.77,3.8,0,1.94,1.17,3.55,3.72,3.55,3.98,0,5.24-2.68,5.24-6.91v-.43Z"/>
    <path class="cls-1" d="m636.32,69.59c0-3.38-.02-6.04-.08-7.16h3.78c.08.98.1,2.33.1,4.17.93-2.45,3.17-4.5,6.74-4.55v3.98c-4.67.12-6.68,2.66-6.68,7.27v10.23h-3.85v-13.95Z"/>
    <path class="cls-1" d="m663.6,78.7c0,1.45.13,3.65.31,4.84h-3.47c-.14-.71-.29-1.88-.31-3.12-.82,2.04-2.92,3.5-6.29,3.5-5.17,0-6.8-3.43-6.8-6.41,0-3.3,2.16-6.75,9.67-6.75h3.09v-1.95c0-1.95-.56-3.87-3.93-3.87-2.95,0-3.92,1.38-4.25,3.56h-3.76c.3-3.49,2.33-6.47,8.11-6.47,4.52,0,7.62,1.76,7.62,6.65v10.03Zm-3.68-5.25h-3.19c-4.86,0-5.77,1.97-5.77,3.8,0,1.94,1.17,3.55,3.72,3.55,3.98,0,5.23-2.68,5.23-6.91v-.43Z"/>
    <path class="cls-1" d="m679.53,73.75c-.02,3.91,1.62,7.01,5.23,7.01,3.22,0,4.22-2.22,4.6-3.29h3.79c-.76,2.8-2.89,6.46-8.56,6.46-6.63,0-8.98-5.08-8.98-11,0-5.19,2.56-10.92,9.18-10.92s8.67,5.14,8.67,10.12c0,.15-.02,1.45-.04,1.62h-13.9Zm10.14-2.74c-.11-3.35-1.45-5.94-4.96-5.94-3.98,0-4.93,3.54-5.1,5.94h10.06Z"/>
    <path class="cls-1" d="m696.69,83.53v-30.19h3.85v30.19h-3.85Z"/>
    <path class="cls-1" d="m714.68,83.53v-17.99h-3.18v-3.12h3.18v-2.5c0-3.81,1.43-6.89,5.87-6.89.71,0,1.56.1,2.06.29v3.2c-.41-.11-1-.17-1.66-.17-1.79,0-2.44,1.2-2.44,3.46v2.61h3.85v3.12h-3.85v17.99h-3.83Z"/>
    <path class="cls-1" d="m740.33,77.51c0,2.72.04,4.99.08,6.02h-3.73c-.12-.6-.17-1.81-.19-3.2-1.03,2.26-3.12,3.57-6.12,3.57-3.48,0-6.47-1.79-6.47-7.29v-14.19h3.83v13.46c0,2.63.86,4.72,3.88,4.72s4.82-1.92,4.82-6.38v-11.8h3.9v15.09Z"/>
    <path class="cls-1" d="m742.44,62.42h3.3v-6.06h3.83v6.06h4.16v3.12h-4.16v12.75c0,1.7.42,2.42,2.21,2.42.57,0,1.08-.05,1.56-.13v2.83c-.87.31-2.14.37-2.88.37-3.26,0-4.72-1.26-4.72-4.85v-13.39h-3.3v-3.12Z"/>
    <path class="cls-1" d="m771.92,77.51c0,2.72.04,4.99.08,6.02h-3.73c-.12-.6-.17-1.81-.18-3.2-1.03,2.26-3.12,3.57-6.12,3.57-3.48,0-6.47-1.79-6.47-7.29v-14.19h3.83v13.46c0,2.63.86,4.72,3.87,4.72s4.82-1.92,4.82-6.38v-11.8h3.9v15.09Z"/>
    <path class="cls-1" d="m776.5,69.59c0-3.38-.02-6.04-.08-7.16h3.78c.08.98.1,2.33.1,4.17.93-2.45,3.17-4.5,6.74-4.55v3.98c-4.67.12-6.68,2.66-6.68,7.27v10.23h-3.85v-13.95Z"/>
    <path class="cls-1" d="m806.44,72.64c0,6.12-2.73,11.26-9.56,11.26s-9.31-5.37-9.31-11.16,3.03-10.73,9.57-10.73c6.13,0,9.29,4.62,9.29,10.63Zm-14.91.05c0,4.79,1.9,8.05,5.56,8.05s5.39-3.19,5.39-8.08c0-4.5-1.82-7.49-5.51-7.49s-5.43,3.07-5.43,7.52Z"/>
    <path class="cls-1" d="m816.2,62.42h3.3v-6.06h3.83v6.06h4.16v3.12h-4.16v12.75c0,1.7.42,2.42,2.21,2.42.57,0,1.08-.05,1.56-.13v2.83c-.87.31-2.14.37-2.88.37-3.26,0-4.72-1.26-4.72-4.85v-13.39h-3.3v-3.12Z"/>
    <path class="cls-1" d="m832.14,73.75c-.02,3.91,1.62,7.01,5.23,7.01,3.22,0,4.22-2.22,4.6-3.29h3.79c-.76,2.8-2.89,6.46-8.56,6.46-6.63,0-8.98-5.08-8.98-11,0-5.19,2.56-10.92,9.18-10.92s8.67,5.14,8.67,10.12c0,.15-.02,1.45-.04,1.62h-13.9Zm10.14-2.74c-.11-3.35-1.45-5.94-4.96-5.94-3.98,0-4.93,3.54-5.1,5.94h10.06Z"/>
    <path class="cls-1" d="m849.22,69.03c0-4.39-.04-5.69-.08-6.6h3.78c.06.4.16,2.3.14,3.2.87-1.84,2.79-3.61,6.15-3.61,4.01,0,6.71,2.33,6.71,7.86v13.66h-3.88v-13.02c0-2.94-.95-5.18-3.99-5.18-3.53,0-4.98,2.54-4.98,6.82v11.38h-3.85v-14.5Z"/>
    <path class="cls-1" d="m887.95,72.64c0,6.12-2.73,11.26-9.56,11.26s-9.31-5.37-9.31-11.16,3.03-10.73,9.57-10.73c6.13,0,9.29,4.62,9.29,10.63Zm-14.91.05c0,4.79,1.9,8.05,5.56,8.05s5.39-3.19,5.39-8.08c0-4.5-1.82-7.49-5.51-7.49s-5.43,3.07-5.43,7.52Z"/>
    <path class="cls-1" d="m891.14,83.53v-30.19h3.85v30.19h-3.85Z"/>
    <path class="cls-1" d="m917.02,72.64c0,6.12-2.73,11.26-9.56,11.26s-9.31-5.37-9.31-11.16,3.03-10.73,9.57-10.73c6.14,0,9.29,4.62,9.29,10.63Zm-14.91.05c0,4.79,1.9,8.05,5.56,8.05s5.39-3.19,5.39-8.08c0-4.5-1.82-7.49-5.51-7.49s-5.44,3.07-5.44,7.52Zm12.21-20.08l-5.6,6.23h-3.62l4.58-6.23h4.64Z"/>
    <path class="cls-1" d="m937.04,81.83c0,6.57-2.65,10.35-9.23,10.35s-8.19-3.38-8.48-6.41h3.81c.45,2.21,2.23,3.31,4.84,3.31,4.33,0,5.31-2.79,5.31-7.24v-1.65c-1.08,2.29-2.96,3.33-6.09,3.33-4.98,0-8.22-4.11-8.22-10.65s3.85-10.85,8.68-10.85c3.33,0,4.98,1.34,5.53,2.87,0-.82.12-1.99.18-2.46h3.76c-.04,1.01-.08,3.28-.08,6.17v13.24Zm-14.07-9.03c0,4.67,1.97,7.41,5.19,7.41,3.86,0,5.22-2.38,5.22-7.49s-1.05-7.41-5.05-7.41c-3.3,0-5.36,2.71-5.36,7.5Z"/>
    <path class="cls-1" d="m941.55,53.35h3.85v4.6h-3.85v-4.6Zm0,9.08h3.85v21.11h-3.85v-21.11Z"/>
    <path class="cls-1" d="m966.25,76.68c-.81,4.15-3.43,7.25-8.63,7.25-6.04,0-9.03-3.95-9.03-10.97,0-6.2,3.19-10.94,9.27-10.94s8.1,4.09,8.37,7.47h-3.88c-.37-2.3-1.61-4.36-4.57-4.36-3.66,0-5.23,3.23-5.23,7.75,0,5.32,1.86,7.98,5.18,7.98,2.82,0,3.98-1.76,4.67-4.16h3.86Z"/>
    <path class="cls-1" d="m986.84,72.64c0,6.12-2.73,11.26-9.56,11.26s-9.31-5.37-9.31-11.16,3.03-10.73,9.57-10.73c6.13,0,9.29,4.62,9.29,10.63Zm-14.91.05c0,4.79,1.9,8.05,5.56,8.05s5.39-3.19,5.39-8.08c0-4.5-1.82-7.49-5.51-7.49s-5.43,3.07-5.43,7.52Z"/>
  </g>
  <rect class="cls-1" x="220.35" y="0" width="4" height="91.73"/>
  <g>
    <path class="cls-1" d="m204.78,91.6h-14.96c-.12-.6-.19-1.14-.25-1.36-3.69-13.96-12.82-23.65-24.5-31.09-7.05-4.49-12.63-10.49-18.49-16.27-2.08-2.05-4.41-4.12-7.14-5.17-7.57-2.9-11.65-5.62-16.91-9.06-.26-.17-.77-.44-1.22-.72-.36-.23-.37-.75-.03-1,1.28-.9,3.37-.77,4.58-.61,1.98.28,3.07.8,5.04,1.1,2.39.35,2.62.31,3.67-1.54,2.39-4.21,2.5-4.01,4.16-7.3.42-.83,1.94-3.29,2.13-3.59.55-.84.49-.93,1.1-.93.36,0,1.28-.05,2.19-.05h5.1c-.35.88-.92,2.02-1.19,2.6-1.91,4.09-4.06,8.14-6.02,12.21-.57,1.2-.42,1.65.73,2.24.48.24,1.03,1.21,1.22,1.76,1.01,2.87,3.03,4.4,5.73,5.42,6.65,2.51,13.33,4.95,19.91,7.62,3.71,1.5,7.24,3.44,10.87,5.13,1.06.49,2.17.95,3.3,1.15,3.43.63,4.77-.19,5.44-3.74.05-.29.42-.37.6-.14,3.95,5.06,7.71,9.8,11.36,14.64.52.68.57,1.83.57,2.78.03,4.79-.24,10.36-.07,15.15.07,1.88,1.55,4.32,2.05,6.17.5,1.84.77,2.32,1.04,4.59Z"/>
    <path class="cls-1" d="m178.01,33.22c1.42,1.66.84,3.25.18,4.86-.63,1.49-1.91,2.18-3.5,2.09-1.29-.08-2.66-.08-3.87-.49-3.62-1.22-7.18-2.63-11.24-4.13,9.18.03,9.58-.92,11.66-10.35.41.33.8.56,1.06.89,1.91,2.37,3.73,4.83,5.71,7.14Z"/>
    <path class="cls-1" d="m172.47,85.46c1.15,2.25,2.15,5.29,1.97,6.14h-14.84s-.03-.04-.03-.07c-1.11-6-5.65-11.54-10.01-15.03-9.45-7.58-19.21-14.77-28.86-22.12-6.72-5.12-13.54-10.12-20.14-15.39-4.74-3.79-7.94-8.88-10.43-14.37-.08-.16-.14-.31-.19-.47-.03-.06-.04-.12-.07-.19-.08-.22-.14-.44-.19-.66-.04-.18-.08-.36-.1-.54,0-.1-.02-.19-.03-.3-.15-2.55,1.78-4.37,4.82-4.98.28-.02.57-.09,1-.2.15-.03.33-.07.52-.11,0,0,0,0,0,0h1.08c1.24.86,2.78,1.3,4.85,1.03-1.89-3.24-3.57-6.14-5.26-9.04.11-.09.22-.19.33-.29,2.17,2.47,4.45,4.86,6.48,7.44,1.48,1.88,2.56,3.08,4.57,3.66l-.19.79c-.47-.12-.95-.23-1.44-.34-2.22-.49-3.2.35-3.02,3.17.28,4.56,1.96,7.98,5.73,10.66,9.88,7.02,19.78,14,29.59,21.12,7.95,5.77,15.89,11.56,23.63,17.62,4.26,3.34,7.74,7.57,10.24,12.46Z"/>
    <path class="cls-1" d="m163.56,14.91c.58.62.52,1.76.31,2.62-.85,3.64-1.84,7.25-2.97,10.8-1.44,4.52-6.93,7.2-11.66,3.66,2.86-2.49,4.55-9.48,6.55-14.69.21-.56.86-2.94,1.56-3.05,1.49-.22,5.03-.57,6.21.67Z"/>
    <path class="cls-1" d="m142.71,87.39c.88,1.38,1.86,3.31,1.82,4.21h-15.83c-.04-.8,0-1.76-.2-2.42-.66-1.98-1.66-4.1-3.12-5.51-6.05-5.78-12.31-11.36-18.55-16.95-7.58-6.79-15.43-13.3-22.78-20.34-2.59-2.47-4.89-5.25-6.87-8.24-3.12-4.7-5.43-9.89-7.25-15.22-2.01-5.89-4.1-12.11-3.26-18.42.28-2.11,1.09-3.78,3.34-4.21,3.3-.63,6.47-.16,9.78.56,6.4,1.4,9.86,5.93,13.06,10.96.82,1.28,1.57,2.63,2.54,3.81.49.59,1.02,1.11,1.62,1.54h-1.08s0,0,0,0c-.63-.46-.93-.8-1.32-.94-.19-.07-.36-.13-.55-.19-1.39-.78-3.56-1.25-5.31-1.86-1.69-.59-3.48-1.56-5.31-1.49-.06,0-.12,0-.18.02-.14,0-.28.03-.41.06-.88.16-1.58.71-2.12,1.61-.04.06-.08.13-.11.19-.16.26-.3.53-.41.82-.39.91-.66,1.82-.83,2.74,0,.02,0,.03,0,.06-.51,2.32-.44,4.69.34,7.13,1.02,3.21,2.69,6,4.63,8.68.11.16.22.31.33.46.19.27.39.53.59.79,6.68,8.9,15.37,15.54,23.99,22.3,8.88,6.98,17.75,13.97,26.38,21.25,2.8,2.36,5.13,5.46,7.11,8.59Z"/>
    <path class="cls-1" d="m125.82,13.88h7.64c-7.22,8.94-8.35,9.21-14.88,9.1-3.67-.07-7-1.25-10.83-2.21l.19-.79c.46.13.98.22,1.55.29.4.04.85.08,2.22-.09-1.86-1.46-4.96-3.18-6.84-4.66,3.45-.9,4.4-1.64,5.42-1.64.66,0,6.05-.09,7.47-.09-3.72,2.49-5.13,2.04-9.81,2.31,0,.14,3.91,1.39,5.95,1.66,4.61.61,7.67-.41,10.27-2.39,1.01-.79,1.64-1.47,1.64-1.47Z"/>
    <path class="cls-1" d="m114.92,91.6h-17.02c0-.55.03-1.05.09-1.3.85-2.96-.76-5.03-2.04-6.58-3.34-4.05-6.96-7.91-10.69-11.61-7.39-7.33-15.11-14.42-20.47-23.45-5.16-8.66-9.07-18-10.93-27.98-.76-4.1-.56-7.78-.23-11.98.32-4.14,4.83-6.56,8.25-8.07-3.71,3.7-3.13,13.88-1.33,18.77,5.69,15.34,9.78,24.17,20.5,36.14,6.2,6.91,14.29,12.71,21.02,19.1,3.66,3.46,6.89,6.46,10.35,11.05.74.99,1.71,4.15,2.47,5.91Z"/>
    <path class="cls-1" d="m95.89,17.17c-.13-.08-1.16-.68-1.55-.94-.1-.07-.21-.14-.32-.19.19.07.36.13.55.19.39.14.68.48,1.32.94Z"/>
    <path class="cls-1" d="m95.38,17.29c-.43.11-.72.19-1,.2.17-.03.52-.1,1-.2Z"/>
    <path class="cls-1" d="m89.87,23.97c.03.07.04.13.07.19-.03-.07-.05-.13-.07-.19Z"/>
    <path class="cls-1" d="m89.59,22.77c.03.18.06.36.1.54-.05-.19-.08-.36-.1-.54Z"/>
    <path class="cls-1" d="m83.38,88.53c.07,1.02.05,2.05.04,3.07h-15.85c2.86-6.06-1.58-10.78-4.31-14.69-5.87-8.42-12-16.68-15.65-26.44-2.84-7.58-5.1-15.32-4.36-23.54.36-3.93,1.06-7.84,1.85-11.7.46-2.31,1.67-4.37,3.87-5.77-3.16,13.13.1,25.2,5.28,37.09,4.52,10.39,12.52,18.8,19.83,27.18,2.18,2.5,4.34,5.05,6.32,7.73,1.57,2.13,2.8,4.41,2.98,7.08Z"/>
    <path class="cls-1" d="m84.3,34c-1.93-2.69-3.61-5.47-4.63-8.68-.78-2.44-.84-4.81-.34-7.13-1.05,5.61,1.7,11.18,4.97,15.81Z"/>
    <path class="cls-1" d="m82.81,12.77c-.93.22-1.61.83-2.12,1.61.54-.9,1.24-1.45,2.12-1.61Z"/>
    <path class="cls-1" d="m53.63,86.92c.17,1.45.11,3.39-.49,4.69h-15.86c4.64-6.81,2.34-10.62,1.14-14.85-1.31-4.6-2.57-9.23-4.07-13.77-1.51-4.59-1.66-9.27-1.45-14.01.38-8.88,2.01-17.5,5.28-25.78.24-.6.33-1.26.49-1.88-.18-.1-.35-.19-.52-.3-.51.65-1.21,1.22-1.5,1.96-.08.22-.18.44-.26.66l-1.02-.41c-.22-.24-.44-.46-.67-.7-4.06,3.56-8.13,7.14-12.4,10.87,4.3-8.85,12.28-13.11,20.12-17.8-.19.6-.33,1.21-.55,1.8-2.56,7.04-3.86,14.31-3.91,21.82-.05,9.53,2.71,18.35,6.79,26.81,2.27,4.69,4.86,9.22,7.03,13.95.99,2.15,1.6,4.58,1.87,6.94Z"/>
    <path class="cls-1" d="m35.35,23.22l1.02.41c-2.27,5.7-4.84,11.32-6.49,17.2-2.02,7.11-3.58,14.42-4.53,21.75-.55,4.17.5,8.55.83,12.84.31,4.19.45,8.34-1.85,12.14-.58.95-1.88,2.92-3.19,4.04H5.34c6.47-5.43,7.07-8.55,8.48-11.72.55-1.24.79-2.67.94-4.04.75-6.99,4.48-12.94,6.74-19.4,2.97-8.51,6.64-16.77,10-25.15.17-.41.26-.86-.03-1.6-.49.57-1.09,1.06-1.44,1.69-1.13,2.04-2.23,4.08-3.34,6.12l-.97-.52c.2-.33.26-.74.02-1.48-.52.49-1.11.92-1.55,1.47l-.81-.72c1.17-1.32,2.33-2.63,3.53-3.9,2.43-2.58,4.89-5.12,7.32-7.68.42-.45.76-.96,1.14-1.45Z"/>
    <path class="cls-1" d="m25.71,36.99l.97.52c-1.07,1.98-2.15,3.97-3.26,5.93-5.29,9.35-10.54,18.75-16.05,27.97-1.93,3.22-4.6,5.98-6.93,8.95-.14-.06-.28-.11-.41-.16,0-2.69-.08-5.38.06-8.06.03-.63.67-1.33,1.18-1.85,9.9-9.8,17.3-21.46,24.45-33.31Z"/>
    <path class="cls-1" d="m23.36,36.26l.81.72c-4.29,5.27-8.39,10.72-12.89,15.79-3.04,3.44-6.65,6.36-10.21,9.3,4.78-6.37,8.72-13.32,15.04-18.46,2.65-2.16,4.96-4.75,7.25-7.35Z"/>
  </g>
  <g>
    <path class="cls-2" d="m275.94,41.77h-8.41l-2.32-7.13h-13.86l-2.26,7.13h-8.41l13.22-37.81c.58-1.31,1.23-2.22,1.94-2.73.71-.5,1.6-.75,2.64-.75s1.88.23,2.52.7c.64.46,1.21,1.39,1.71,2.78l13.22,37.81Zm-12.58-13.92l-4.87-16.35-5.1,16.35h9.98Z"/>
    <path class="cls-2" d="m306.82,4.04c2.38,2.38,3.57,5.87,3.57,10.47s-1.19,8.09-3.57,10.47c-2.38,2.38-5.73,3.57-10.06,3.57h-7.95v13.22h-8.06V.48h16.01c4.33,0,7.68,1.19,10.06,3.57Zm-4.49,10.47c0-4.56-1.99-6.84-5.97-6.84h-7.54v13.63h7.54c1.93,0,3.41-.52,4.44-1.57,1.02-1.04,1.54-2.78,1.54-5.22Z"/>
    <path class="cls-2" d="m343.5,41.77h-14.61c-4.64,0-7.9-.8-9.77-2.41-1.88-1.6-2.81-4.44-2.81-8.5V.48h27.2v7.19h-19.14v9.68h13.4l-.58,7.19h-12.82v5.74c0,1.62.37,2.75,1.1,3.36.73.62,2.07.93,4,.93h14.03v7.19Z"/>
    <path class="cls-2" d="m383.11,41.77h-9.97l-8.64-14.38-8.53,14.38h-9.97l13.86-21.17L346.87.48h9.92l7.71,13.34,7.83-13.34h9.86l-12.99,20.12,13.92,21.17Z"/>
    <path class="cls-2" d="m426.55,7.67h-14.56c-1.7,0-2.89.33-3.57.99-.68.66-1.02,1.8-1.02,3.42v5.74h15.14l-.58,7.19h-14.56v16.76h-8.06V8.88c0-3.05.67-5.22,2-6.5,1.33-1.28,3.62-1.91,6.87-1.91h18.33v7.19Z"/>
    <path class="cls-2" d="m440.76,41.77h-8.06V.48h8.06v41.29Z"/>
    <path class="cls-2" d="m481.7.48v37.12c0,1.28-.39,2.37-1.16,3.28-.77.91-1.68,1.36-2.72,1.36-2.67,0-4.85-1.55-6.55-4.64l-14.27-22.33v26.5h-8.06V.48h7.77l16.93,27.02V.48h8.06Z"/>
    <path class="cls-2" d="m520.5,41.77h-8.41l-2.32-7.13h-13.86l-2.26,7.13h-8.41l13.22-37.81c.58-1.31,1.23-2.22,1.94-2.73.71-.5,1.59-.75,2.64-.75s1.88.23,2.52.7c.64.46,1.21,1.39,1.71,2.78l13.22,37.81Zm-12.58-13.92l-4.87-16.35-5.1,16.35h9.97Z"/>
    <path class="cls-2" d="m557.5.48v37.12c0,1.28-.39,2.37-1.16,3.28-.77.91-1.68,1.36-2.73,1.36-2.67,0-4.85-1.55-6.55-4.64l-14.27-22.33v26.5h-8.06V.48h7.77l16.93,27.02V.48h8.06Z"/>
    <path class="cls-2" d="m585.85,25.76h7.48c0,5.26-1.32,9.3-3.94,12.12-2.63,2.82-6.34,4.23-11.13,4.23-10.56,0-15.83-6.21-15.83-18.62v-3.48c0-9.78,2.71-15.91,8.12-18.38,2.13-1,4.7-1.51,7.71-1.51,4.41,0,7.99,1.21,10.76,3.62,2.76,2.42,4.15,5.91,4.15,10.47h-7.54c-.43-2.28-1.18-4-2.26-5.16-1.08-1.16-2.78-1.74-5.1-1.74-2.71,0-4.72.85-6.03,2.55-.93,1.2-1.47,3.25-1.62,6.15-.08.93-.12,2.18-.12,3.77v3.6c0,4.45.62,7.48,1.86,9.1,1.28,1.62,3.26,2.44,5.94,2.44s4.54-.74,5.57-2.23c1.02-1.49,1.69-3.8,2-6.93Z"/>
    <path class="cls-2" d="m607.37,41.77h-8.06V.48h8.06v41.29Z"/>
    <path class="cls-2" d="m647.44,41.77h-8.41l-2.32-7.13h-13.86l-2.26,7.13h-8.41l13.22-37.81c.58-1.31,1.23-2.22,1.94-2.73.71-.5,1.6-.75,2.64-.75s1.88.23,2.52.7c.64.46,1.21,1.39,1.71,2.78l13.22,37.81Zm-12.58-13.92l-4.87-16.35-5.1,16.35h9.98Z"/>
    <path class="cls-2" d="m677.72,41.77h-12.29c-4.64,0-7.99-.9-10.06-2.7s-3.1-4.73-3.1-8.79V.48h8.06v29.81c0,1.62.37,2.75,1.1,3.36.73.62,2.07.93,4,.93h12.29v7.19Z"/>
    <path class="cls-2" d="m723.7,29.59c0,3.91-1.43,6.97-4.29,9.19-2.86,2.22-6.51,3.33-10.96,3.33-3.52,0-6.92-.97-10.21-2.9-1.62-1-2.96-2.43-4-4.26-1.04-1.84-1.57-3.93-1.57-6.29l7.31-.35c0,2.09.89,3.71,2.67,4.87,1.78,1.16,3.75,1.74,5.92,1.74,4.83,0,7.25-1.7,7.25-5.1,0-2.78-1.64-4.43-4.93-4.93l-6.73-.7c-3.36-.5-6.03-1.7-8-3.6-1.97-1.89-2.96-4.62-2.96-8.18s1.41-6.5,4.23-8.81,6.39-3.48,10.7-3.48,7.78,1.09,10.41,3.28c2.63,2.18,3.94,5,3.94,8.44l-7.19.35c-.66-3.36-2.92-5.05-6.79-5.05-2.36,0-4.2.5-5.54,1.51-1.33,1.01-2,2.19-2,3.57s.48,2.46,1.45,3.25c.97.79,2.17,1.29,3.6,1.48l6.61.7c7.38,1.01,11.08,4.99,11.08,11.95Z"/>
    <path class="cls-2" d="m759.54,19.21v3.13c0,6.92-1.3,11.95-3.92,15.08-2.61,3.13-6.79,4.7-12.55,4.7s-9.93-1.57-12.5-4.7c-2.57-3.13-3.86-8.21-3.86-15.25v-3.02c0-6.42,1.3-11.19,3.92-14.32,2.61-3.13,6.75-4.7,12.41-4.7s9.83,1.59,12.5,4.76c2.67,3.17,4,7.94,4,14.32Zm-8.06,2.96v-2.15c0-3.71-.46-6.67-1.39-8.87-1.08-2.55-3.4-3.83-6.96-3.83s-5.93,1.28-7.02,3.83c-.89,2.09-1.33,5.05-1.33,8.87v2.15c0,4.99.7,8.35,2.09,10.09.54.73,1.34,1.36,2.41,1.88,1.06.52,2.34.78,3.83.78s2.75-.25,3.8-.75c1.04-.5,1.86-1.12,2.44-1.86.58-.73,1.02-1.7,1.33-2.9.54-1.89.81-4.31.81-7.25Z"/>
    <path class="cls-2" d="m791.21,41.77h-12.29c-4.64,0-7.99-.9-10.06-2.7s-3.1-4.73-3.1-8.79V.48h8.06v29.81c0,1.62.37,2.75,1.1,3.36.73.62,2.07.93,4,.93h12.29v7.19Z"/>
    <path class="cls-2" d="m827.1.48v27.14c0,4.49-1.52,8.02-4.55,10.61-3.04,2.59-6.78,3.89-11.22,3.89s-8.19-1.29-11.22-3.89c-3.04-2.59-4.55-6.13-4.55-10.61V.48h8.06v26.85c0,2.55.71,4.46,2.12,5.71,1.41,1.26,3.28,1.88,5.6,1.88s4.19-.63,5.62-1.88c1.43-1.26,2.15-3.16,2.15-5.71V.48h8Z"/>
    <path class="cls-2" d="m861.49,7.67h-11.08v34.1h-8.06V7.67h-11.02V.48h30.16v7.19Z"/>
    <path class="cls-2" d="m874.95,41.77h-8.06V.48h8.06v41.29Z"/>
    <path class="cls-2" d="m913.98,19.21v3.13c0,6.92-1.3,11.95-3.92,15.08-2.61,3.13-6.79,4.7-12.55,4.7s-9.93-1.57-12.5-4.7c-2.57-3.13-3.86-8.21-3.86-15.25v-3.02c0-6.42,1.3-11.19,3.92-14.32,2.61-3.13,6.75-4.7,12.41-4.7s9.83,1.59,12.5,4.76c2.67,3.17,4,7.94,4,14.32Zm-8.06,2.96v-2.15c0-3.71-.46-6.67-1.39-8.87-1.08-2.55-3.4-3.83-6.96-3.83s-5.93,1.28-7.02,3.83c-.89,2.09-1.33,5.05-1.33,8.87v2.15c0,4.99.7,8.35,2.09,10.09.54.73,1.34,1.36,2.41,1.88,1.06.52,2.34.78,3.83.78s2.75-.25,3.8-.75c1.04-.5,1.86-1.12,2.44-1.86.58-.73,1.02-1.7,1.33-2.9.54-1.89.81-4.31.81-7.25Z"/>
    <path class="cls-2" d="m952.37.48v37.12c0,1.28-.39,2.37-1.16,3.28-.77.91-1.68,1.36-2.72,1.36-2.67,0-4.85-1.55-6.55-4.64l-14.27-22.33v26.5h-8.06V.48h7.77l16.93,27.02V.48h8.06Z"/>
    <path class="cls-2" d="m987.69,29.59c0,3.91-1.43,6.97-4.29,9.19-2.86,2.22-6.51,3.33-10.96,3.33-3.52,0-6.92-.97-10.21-2.9-1.62-1-2.96-2.43-4-4.26-1.04-1.84-1.57-3.93-1.57-6.29l7.31-.35c0,2.09.89,3.71,2.67,4.87,1.78,1.16,3.75,1.74,5.92,1.74,4.83,0,7.25-1.7,7.25-5.1,0-2.78-1.64-4.43-4.93-4.93l-6.73-.7c-3.36-.5-6.03-1.7-8-3.6-1.97-1.89-2.96-4.62-2.96-8.18s1.41-6.5,4.23-8.81,6.39-3.48,10.7-3.48,7.78,1.09,10.41,3.28c2.63,2.18,3.94,5,3.94,8.44l-7.19.35c-.66-3.36-2.92-5.05-6.79-5.05-2.36,0-4.2.5-5.54,1.51-1.33,1.01-2,2.19-2,3.57s.48,2.46,1.45,3.25c.97.79,2.17,1.29,3.6,1.48l6.61.7c7.38,1.01,11.08,4.99,11.08,11.95Z"/>
  </g>
</svg>