<?xml version="1.0" encoding="UTF-8"?>
<svg id="Capa_1" data-name="Capa 1" xmlns="http://www.w3.org/2000/svg" viewBox="0 0 988.94 102.21">
  <defs>
    <style>
      .cls-1 {
        letter-spacing: -.01em;
      }

      .cls-2 {
        letter-spacing: -.03em;
      }

      .cls-3 {
        font-family: Viga-Regular, Viga;
        font-size: 57.99px;
        letter-spacing: -.01em;
      }

      .cls-3, .cls-4, .cls-5 {
        fill: #fff;
      }

      .cls-3, .cls-6 {
        stroke: #fff;
        stroke-miterlimit: 10;
      }

      .cls-7 {
        letter-spacing: -.03em;
      }

      .cls-8 {
        letter-spacing: -.04em;
      }

      .cls-9 {
        letter-spacing: -.04em;
      }

      .cls-10 {
        letter-spacing: -.05em;
      }

      .cls-11 {
        letter-spacing: -.02em;
      }

      .cls-12 {
        letter-spacing: -.03em;
      }

      .cls-13 {
        letter-spacing: -.03em;
      }

      .cls-4 {
        stroke-width: 0px;
      }

      .cls-14 {
        letter-spacing: -.03em;
      }

      .cls-15 {
        letter-spacing: -.02em;
      }

      .cls-16 {
        letter-spacing: -.04em;
      }

      .cls-17 {
        letter-spacing: -.04em;
      }

      .cls-18 {
        letter-spacing: -.02em;
      }

      .cls-19 {
        letter-spacing: -.02em;
      }

      .cls-20 {
        letter-spacing: -.03em;
      }

      .cls-21 {
        letter-spacing: -.04em;
      }

      .cls-22 {
        letter-spacing: -.02em;
      }

      .cls-23 {
        letter-spacing: -.04em;
      }

      .cls-5 {
        font-family: AcuminConcept-SemiCondMedium, 'Acumin Variable Concept';
        font-size: 40.45px;
        font-variation-settings: 'wght' 500, 'wdth' 90, 'slnt' 0;
        font-weight: 500;
      }

      .cls-6 {
        fill: none;
        stroke-width: 4px;
      }
    </style>
  </defs>
  <text class="cls-5" transform="translate(236.59 91.61)"><tspan class="cls-23" x="0" y="0">I</tspan><tspan class="cls-12" x="8.7" y="0">nno</tspan><tspan class="cls-23" x="70.34" y="0">v</tspan><tspan class="cls-13" x="87.33" y="0">a</tspan><tspan class="cls-7" x="106.58" y="0">c</tspan><tspan class="cls-13" x="125.31" y="0">iรณ</tspan><tspan class="cls-17" x="153.67" y="0">n</tspan><tspan class="cls-12" x="174.25" y="0"> </tspan><tspan class="cls-1" x="182.87" y="0">f</tspan><tspan class="cls-12" x="192.7" y="0">i</tspan><tspan class="cls-21" x="200.91" y="0">n</tspan><tspan class="cls-12" x="221.34" y="0">an</tspan><tspan class="cls-7" x="261.34" y="0">c</tspan><tspan class="cls-13" x="280.07" y="0">ie</tspan><tspan class="cls-10" x="307.41" y="0">r</tspan><tspan class="cls-13" x="319.22" y="0">a </tspan><tspan class="cls-8" x="347.09" y="0">p</tspan><tspan class="cls-13" x="367.84" y="0">a</tspan><tspan class="cls-10" x="387.09" y="0">r</tspan><tspan class="cls-13" x="398.91" y="0">a </tspan><tspan class="cls-7" x="426.78" y="0">e</tspan><tspan class="cls-22" x="445.99" y="0">l</tspan><tspan class="cls-12" x="454.52" y="0"> </tspan><tspan class="cls-19" x="463.14" y="0">f</tspan><tspan class="cls-15" x="472.64" y="0">u</tspan><tspan class="cls-9" x="493.43" y="0">t</tspan><tspan class="cls-13" x="503.46" y="0">u</tspan><tspan class="cls-16" x="523.85" y="0">r</tspan><tspan class="cls-11" x="536.03" y="0">o</tspan><tspan class="cls-12" x="556.78" y="0"> </tspan><tspan class="cls-17" x="565.39" y="0">t</tspan><tspan class="cls-20" x="575.67" y="0">e</tspan><tspan class="cls-12" x="595" y="0">cnol</tspan><tspan class="cls-14" x="662.75" y="0">รณ</tspan><tspan class="cls-13" x="683.06" y="0">gi</tspan><tspan class="cls-2" x="711.94" y="0">c</tspan><tspan class="cls-18" x="730.87" y="0">o</tspan></text>
  <line class="cls-6" x1="222.35" y1="8.38" x2="222.35" y2="100.11"/>
  <g>
    <path class="cls-4" d="m204.78,99.98h-14.96c-.12-.6-.19-1.14-.25-1.36-3.69-13.96-12.82-23.65-24.5-31.09-7.05-4.49-12.63-10.49-18.49-16.27-2.08-2.05-4.41-4.12-7.14-5.17-7.57-2.9-11.65-5.62-16.91-9.06-.26-.17-.77-.44-1.22-.72-.36-.23-.37-.75-.03-1,1.28-.9,3.37-.77,4.58-.61,1.98.28,3.07.8,5.04,1.1,2.39.35,2.62.31,3.67-1.54,2.39-4.21,2.5-4.01,4.16-7.3.42-.83,1.94-3.29,2.13-3.59.55-.84.49-.93,1.1-.93.36,0,1.28-.05,2.19-.05h5.1c-.35.88-.92,2.02-1.19,2.6-1.91,4.09-4.06,8.14-6.02,12.21-.57,1.2-.42,1.65.73,2.24.48.24,1.03,1.21,1.22,1.76,1.01,2.87,3.03,4.4,5.73,5.42,6.65,2.51,13.33,4.95,19.91,7.62,3.71,1.5,7.24,3.44,10.87,5.13,1.06.49,2.17.95,3.3,1.15,3.43.63,4.77-.19,5.44-3.74.05-.29.42-.37.6-.14,3.95,5.06,7.71,9.8,11.36,14.64.52.68.57,1.83.57,2.78.03,4.79-.24,10.36-.07,15.15.07,1.88,1.55,4.32,2.05,6.17.5,1.84.77,2.32,1.04,4.59Z"/>
    <path class="cls-4" d="m178.01,41.6c1.42,1.66.84,3.25.18,4.86-.63,1.49-1.91,2.18-3.5,2.09-1.29-.08-2.66-.08-3.87-.49-3.62-1.22-7.18-2.63-11.24-4.13,9.18.03,9.58-.92,11.66-10.35.41.33.8.56,1.06.89,1.91,2.37,3.73,4.83,5.71,7.14Z"/>
    <path class="cls-4" d="m172.47,93.84c1.15,2.25,2.15,5.29,1.97,6.14h-14.84s-.03-.04-.03-.07c-1.11-6-5.65-11.54-10.01-15.03-9.45-7.58-19.21-14.77-28.86-22.12-6.72-5.12-13.54-10.12-20.14-15.39-4.74-3.79-7.94-8.88-10.43-14.37-.08-.16-.14-.31-.19-.47-.03-.06-.04-.12-.07-.19-.08-.22-.14-.44-.19-.66-.04-.18-.08-.36-.1-.54,0-.1-.02-.19-.03-.3-.15-2.55,1.78-4.37,4.82-4.98.28-.02.57-.09,1-.2.15-.03.33-.07.52-.11,0,0,0,0,0,0h1.08c1.24.86,2.78,1.3,4.85,1.03-1.89-3.24-3.57-6.14-5.26-9.04.11-.09.22-.19.33-.29,2.17,2.47,4.45,4.86,6.48,7.44,1.48,1.88,2.56,3.08,4.57,3.66l-.19.79c-.47-.12-.95-.23-1.44-.34-2.22-.49-3.2.35-3.02,3.17.28,4.56,1.96,7.98,5.73,10.66,9.88,7.02,19.78,14,29.59,21.12,7.95,5.77,15.89,11.56,23.63,17.62,4.26,3.34,7.74,7.57,10.24,12.46Z"/>
    <path class="cls-4" d="m163.56,23.28c.58.62.52,1.76.31,2.62-.85,3.64-1.84,7.25-2.97,10.8-1.44,4.52-6.93,7.2-11.66,3.66,2.86-2.49,4.55-9.48,6.55-14.69.21-.56.86-2.94,1.56-3.05,1.49-.22,5.03-.57,6.21.67Z"/>
    <path class="cls-4" d="m142.71,95.76c.88,1.38,1.86,3.31,1.82,4.21h-15.83c-.04-.8,0-1.76-.2-2.42-.66-1.98-1.66-4.1-3.12-5.51-6.05-5.78-12.31-11.36-18.55-16.95-7.58-6.79-15.43-13.3-22.78-20.34-2.59-2.47-4.89-5.25-6.87-8.24-3.12-4.7-5.43-9.89-7.25-15.22-2.01-5.89-4.1-12.11-3.26-18.42.28-2.11,1.09-3.78,3.34-4.21,3.3-.63,6.47-.16,9.78.56,6.4,1.4,9.86,5.93,13.06,10.96.82,1.28,1.57,2.63,2.54,3.81.49.59,1.02,1.11,1.62,1.54h-1.08s0,0,0,0c-.63-.46-.93-.8-1.32-.94-.19-.07-.36-.13-.55-.19-1.39-.78-3.56-1.25-5.31-1.86-1.69-.59-3.48-1.56-5.31-1.49-.06,0-.12,0-.18.02-.14,0-.28.03-.41.06-.88.16-1.58.71-2.12,1.61-.04.06-.08.13-.11.19-.16.26-.3.53-.41.82-.39.91-.66,1.82-.83,2.74,0,.02,0,.03,0,.06-.51,2.32-.44,4.69.34,7.13,1.02,3.21,2.69,6,4.63,8.68.11.16.22.31.33.46.19.27.39.53.59.79,6.68,8.9,15.37,15.54,23.99,22.3,8.88,6.98,17.75,13.97,26.38,21.25,2.8,2.36,5.13,5.46,7.11,8.59Z"/>
    <path class="cls-4" d="m125.82,22.26h7.64c-7.22,8.94-8.35,9.21-14.88,9.1-3.67-.07-7-1.25-10.83-2.21l.19-.79c.46.13.98.22,1.55.29.4.04.85.08,2.22-.09-1.86-1.46-4.96-3.18-6.84-4.66,3.45-.9,4.4-1.64,5.42-1.64.66,0,6.05-.09,7.47-.09-3.72,2.49-5.13,2.04-9.81,2.31,0,.14,3.91,1.39,5.95,1.66,4.61.61,7.67-.41,10.27-2.39,1.01-.79,1.64-1.47,1.64-1.47Z"/>
    <path class="cls-4" d="m114.92,99.98h-17.02c0-.55.03-1.05.09-1.3.85-2.96-.76-5.03-2.04-6.58-3.34-4.05-6.96-7.91-10.69-11.61-7.39-7.33-15.11-14.42-20.47-23.45-5.16-8.66-9.07-18-10.93-27.98-.76-4.1-.56-7.78-.23-11.98.32-4.14,4.83-6.56,8.25-8.07-3.71,3.7-3.13,13.88-1.33,18.77,5.69,15.34,9.78,24.17,20.5,36.14,6.2,6.91,14.29,12.71,21.02,19.1,3.66,3.46,6.89,6.46,10.35,11.05.74.99,1.71,4.15,2.47,5.91Z"/>
    <path class="cls-4" d="m95.89,25.54c-.13-.08-1.16-.68-1.55-.94-.1-.07-.21-.14-.32-.19.19.07.36.13.55.19.39.14.68.48,1.32.94Z"/>
    <path class="cls-4" d="m95.38,25.66c-.43.11-.72.19-1,.2.17-.03.52-.1,1-.2Z"/>
    <path class="cls-4" d="m89.87,32.34c.03.07.04.13.07.19-.03-.07-.05-.13-.07-.19Z"/>
    <path class="cls-4" d="m89.59,31.14c.03.18.06.36.1.54-.05-.19-.08-.36-.1-.54Z"/>
    <path class="cls-4" d="m83.38,96.9c.07,1.02.05,2.05.04,3.07h-15.85c2.86-6.06-1.58-10.78-4.31-14.69-5.87-8.42-12-16.68-15.65-26.44-2.84-7.58-5.1-15.32-4.36-23.54.36-3.93,1.06-7.84,1.85-11.7.46-2.31,1.67-4.37,3.87-5.77-3.16,13.13.1,25.2,5.28,37.09,4.52,10.39,12.52,18.8,19.83,27.18,2.18,2.5,4.34,5.05,6.32,7.73,1.57,2.13,2.8,4.41,2.98,7.08Z"/>
    <path class="cls-4" d="m84.3,42.38c-1.93-2.69-3.61-5.47-4.63-8.68-.78-2.44-.84-4.81-.34-7.13-1.05,5.61,1.7,11.18,4.97,15.81Z"/>
    <path class="cls-4" d="m82.81,21.15c-.93.22-1.61.83-2.12,1.61.54-.9,1.24-1.45,2.12-1.61Z"/>
    <path class="cls-4" d="m53.63,95.29c.17,1.45.11,3.39-.49,4.69h-15.86c4.64-6.81,2.34-10.62,1.14-14.85-1.31-4.6-2.57-9.23-4.07-13.77-1.51-4.59-1.66-9.27-1.45-14.01.38-8.88,2.01-17.5,5.28-25.78.24-.6.33-1.26.49-1.88-.18-.1-.35-.19-.52-.3-.51.65-1.21,1.22-1.5,1.96-.08.22-.18.44-.26.66l-1.02-.41c-.22-.24-.44-.46-.67-.7-4.06,3.56-8.13,7.14-12.4,10.87,4.3-8.85,12.28-13.11,20.12-17.8-.19.6-.33,1.21-.55,1.8-2.56,7.04-3.86,14.31-3.91,21.82-.05,9.53,2.71,18.35,6.79,26.81,2.27,4.69,4.86,9.22,7.03,13.95.99,2.15,1.6,4.58,1.87,6.94Z"/>
    <path class="cls-4" d="m35.35,31.6l1.02.41c-2.27,5.7-4.84,11.32-6.49,17.2-2.02,7.11-3.58,14.42-4.53,21.75-.55,4.17.5,8.55.83,12.84.31,4.19.45,8.34-1.85,12.14-.58.95-1.88,2.92-3.19,4.04H5.34c6.47-5.43,7.07-8.55,8.48-11.72.55-1.24.79-2.67.94-4.04.75-6.99,4.48-12.94,6.74-19.4,2.97-8.51,6.64-16.77,10-25.15.17-.41.26-.86-.03-1.6-.49.57-1.09,1.06-1.44,1.69-1.13,2.04-2.23,4.08-3.34,6.12l-.97-.52c.2-.33.26-.74.02-1.48-.52.49-1.11.92-1.55,1.47l-.81-.72c1.17-1.32,2.33-2.63,3.53-3.9,2.43-2.58,4.89-5.12,7.32-7.68.42-.45.76-.96,1.14-1.45Z"/>
    <path class="cls-4" d="m25.71,45.36l.97.52c-1.07,1.98-2.15,3.97-3.26,5.93-5.29,9.35-10.54,18.75-16.05,27.97-1.93,3.22-4.6,5.98-6.93,8.95-.14-.06-.28-.11-.41-.16,0-2.69-.08-5.38.06-8.06.03-.63.67-1.33,1.18-1.85,9.9-9.8,17.3-21.46,24.45-33.31Z"/>
    <path class="cls-4" d="m23.36,44.64l.81.72c-4.29,5.27-8.39,10.72-12.89,15.79-3.04,3.44-6.65,6.36-10.21,9.3,4.78-6.37,8.72-13.32,15.04-18.46,2.65-2.16,4.96-4.75,7.25-7.35Z"/>
  </g>
  <text class="cls-3" transform="translate(239.81 50.14)"><tspan x="0" y="0">APEX FINANCIAL SOLUTIONS</tspan></text>
</svg>